<svg width="89" height="89" viewBox="0 0 89 89" fill="none" xmlns="http://www.w3.org/2000/svg">
<circle cx="44.0549" cy="44.3254" r="44.0549" fill="white"/>
<path fill-rule="evenodd" clip-rule="evenodd" d="M24.4265 36.9448L29.5264 26.1259H24.4265V18.3987L19.3262 29.2176H24.4265V36.9448Z" fill="#38B71D"/>
<path fill-rule="evenodd" clip-rule="evenodd" d="M42.9574 50.8798L39.2754 70.7231H49.442L45.7592 50.8798H42.9574Z" fill="#38B71D"/>
<path fill-rule="evenodd" clip-rule="evenodd" d="M44.5454 40.0723C44.5766 40.0723 44.6085 40.0734 44.6404 40.076C44.9742 40.1012 45.2779 40.2548 45.4964 40.5084C45.7144 40.7617 45.8209 41.0855 45.796 41.4193C45.7708 41.7531 45.6169 42.0572 45.3636 42.2753C45.1095 42.4937 44.7865 42.6013 44.452 42.575C44.1182 42.5501 43.8144 42.3962 43.596 42.1425C43.3779 41.8888 43.2718 41.5651 43.2963 41.2313C43.346 40.5744 43.8968 40.0723 44.5454 40.0723L44.5454 40.0723ZM44.186 46.1098C44.3092 46.1187 44.4319 46.1235 44.5543 46.1235C45.7003 46.1235 46.7966 45.7181 47.6745 44.9634C48.6465 44.1274 49.2344 42.9637 49.3304 41.6852C49.5288 39.0472 47.5439 36.7392 44.9062 36.5412C42.2674 36.3428 39.9602 38.3273 39.7617 40.966C39.5633 43.6037 41.5482 45.9113 44.1859 46.1097" fill="#38B71D"/>
<path fill-rule="evenodd" clip-rule="evenodd" d="M40.501 25.6449C38.9964 26.0325 37.5566 26.6362 36.2227 27.4392L38.0507 30.4759C39.0903 29.8502 40.2122 29.3799 41.3849 29.078L40.501 25.6449Z" fill="#38B71D"/>
<path fill-rule="evenodd" clip-rule="evenodd" d="M46.0357 21.5282C48.3403 21.7029 50.5396 22.2618 52.602 23.1812L50.8148 26.3959C49.2141 25.7224 47.5207 25.3156 45.762 25.1839C44.9835 25.126 44.1954 25.1223 43.4214 25.1742L43.661 28.7113C44.2674 28.6697 44.8849 28.6723 45.4968 28.7183C46.7381 28.8118 47.936 29.0833 49.0776 29.5216L45.9192 35.2057L49.0179 36.9269L58.3484 20.1379L55.2497 18.4163L54.3288 20.0734C51.8139 18.9107 49.1236 18.2071 46.3019 17.9935C43.975 17.8196 41.6526 17.988 39.3984 18.4961L40.1769 21.9537C42.0892 21.5231 44.0599 21.3804 46.0356 21.528" fill="#38B71D"/>
<path fill-rule="evenodd" clip-rule="evenodd" d="M37.9331 22.6019L36.7492 19.261C35.2802 19.7813 33.8564 20.4537 32.5176 21.2589L34.3449 24.296C35.4805 23.6132 36.6873 23.0432 37.9331 22.6018" fill="#38B71D"/>
<path fill-rule="evenodd" clip-rule="evenodd" d="M56.7969 44.7568L60.2115 45.7074C60.6288 44.2105 60.8253 42.6621 60.7972 41.1059L57.2531 41.1697C57.2757 42.3832 57.1218 43.59 56.7969 44.7568" fill="#38B71D"/>
<path fill-rule="evenodd" clip-rule="evenodd" d="M61.0108 52.5584C59.7004 54.4765 58.1072 56.1095 56.268 57.4391L54.3769 54.2851C55.7729 53.2311 56.9816 51.9609 57.9819 50.4936C58.4232 49.8472 58.8197 49.1663 59.1605 48.4702L55.9769 46.911C55.7103 47.4555 55.4002 47.9888 55.0534 48.4961C54.3458 49.5346 53.495 50.4358 52.5333 51.2094L49.1576 45.5777L46.1172 47.3998L55.9904 63.8707L59.0312 62.0486L58.0955 60.4883C60.3723 58.888 62.3361 56.903 63.9386 54.5565C65.2538 52.6287 66.2689 50.5321 66.9557 48.3262L63.5711 47.2725C62.9888 49.1428 62.1273 50.9216 61.0109 52.5586" fill="#38B71D"/>
<path fill-rule="evenodd" clip-rule="evenodd" d="M64.4576 41.0511C64.4817 42.377 64.3712 43.7074 64.1309 45.0051L67.6164 45.6515C67.8997 44.1198 68.0299 42.5506 68.0013 40.9874L64.4576 41.0511Z" fill="#38B71D"/>
<path fill-rule="evenodd" clip-rule="evenodd" d="M33.377 52.5403C34.4651 53.6497 35.7075 54.595 37.0694 55.3482L38.7862 52.2473C37.724 51.6595 36.7556 50.9233 35.9079 50.0584L33.377 52.5403Z" fill="#38B71D"/>
<path fill-rule="evenodd" clip-rule="evenodd" d="M27.0451 49.8069C26.0623 47.7615 25.4496 45.619 25.2048 43.4167L28.8895 43.3569C29.1146 45.0363 29.6008 46.6644 30.3474 48.2158C30.6867 48.9208 31.0776 49.6048 31.5108 50.2482L34.4522 48.2707C34.1143 47.7674 33.8076 47.2322 33.5413 46.6789C33.0195 45.5948 32.6616 44.4629 32.4654 43.2984L38.5518 43.1997L38.4965 39.6556L19.2988 39.9675L19.3533 43.5116L21.6505 43.4745C21.912 46.1908 22.6434 48.8303 23.8506 51.3434C24.8627 53.4452 26.1708 55.3723 27.7381 57.0708L30.3428 54.6672C29.0139 53.2267 27.9038 51.5915 27.045 49.8069" fill="#38B71D"/>
<path fill-rule="evenodd" clip-rule="evenodd" d="M29.7246 58.9814C30.9088 59.9927 32.2028 60.8896 33.571 61.6468L35.2878 58.546C34.1273 57.9036 33.0303 57.1434 32.0262 56.2862L29.7246 58.9814Z" fill="#38B71D"/>
</svg>
