<svg width="89" height="89" viewBox="0 0 89 89" fill="none" xmlns="http://www.w3.org/2000/svg">
<circle cx="44.0549" cy="44.3254" r="44.0549" fill="white"/>
<path d="M55.6817 22.3636H51.9547C49.4831 22.3636 47.113 23.3455 45.3655 25.0929C43.618 26.8404 42.6365 29.2106 42.6365 31.6818V31.7286C41.0327 30.4956 39.0681 29.8245 37.0453 29.8183H25.8635C25.3692 29.8183 24.8953 30.0146 24.5457 30.364C24.1963 30.7137 24 31.1875 24 31.6818V59.6364C24 60.1307 24.1963 60.6049 24.5457 60.9543C24.8954 61.3036 25.3692 61.5002 25.8635 61.5002H37.0453C38.2803 61.5061 39.4782 61.9208 40.4526 62.6793C41.4269 63.4379 42.1227 64.4976 42.4314 65.6934C42.5345 66.0931 42.7678 66.4473 43.0941 66.7005C43.4204 66.9533 43.8214 67.0908 44.2345 67.0911H44.7655C45.1786 67.0908 45.5796 66.9533 45.9059 66.7005C46.2322 66.4473 46.4656 66.0931 46.5686 65.6934C46.8773 64.4977 47.5731 63.4379 48.5474 62.6793C49.5218 61.9208 50.7197 61.5061 51.9547 61.5002H63.1365C63.6308 61.5002 64.1047 61.3036 64.4543 60.9543C64.8037 60.6049 65 60.1307 65 59.6364V31.6818C65 31.1875 64.8037 30.7137 64.4543 30.364C64.1046 30.0146 63.6308 29.8183 63.1365 29.8183H57.5457V24.2275C57.5457 23.7332 57.3493 23.259 56.9997 22.9096C56.6503 22.5599 56.1761 22.3636 55.6818 22.3636H55.6817ZM46.3635 31.6818C46.3635 30.1992 46.9527 28.777 48.0012 27.7286C49.0497 26.6799 50.4718 26.0909 51.9548 26.0909H53.8183V50.3182H51.9548C49.9321 50.3244 47.9674 50.9958 46.3636 52.2285L46.3635 31.6818ZM37.0453 57.7728H27.7272V33.5455H37.0453C38.5283 33.5455 39.9505 34.1343 40.9989 35.1828C42.0474 36.2315 42.6366 37.6534 42.6366 39.1364V59.6688C41.0305 58.4423 39.0666 57.7761 37.0454 57.7725L37.0453 57.7728ZM61.2726 33.5455V57.7728H51.9545C49.9333 57.7757 47.9691 58.4419 46.3633 59.6691V59.6363C46.3633 58.1537 46.9525 56.7315 48.001 55.683C49.0494 54.6343 50.4715 54.0453 51.9545 54.0453H55.6819H55.6816C56.1759 54.0453 56.6501 53.8491 56.9994 53.4994C57.3491 53.15 57.5454 52.6758 57.5454 52.1818V33.5455L61.2726 33.5455Z" fill="#38B71D"/>
</svg>
