<svg xmlns="http://www.w3.org/2000/svg" width="89" height="89" viewBox="0 0 89 89" fill="none"><circle cx="44.6525" cy="44.3254" r="44.0549" fill="white"></circle><path d="M27.2436 52.1924H25.6218C24.7135 52.1924 24 51.4788 24 50.5706V40.8398C24 39.9315 24.7135 39.218 25.6218 39.218H27.2436L30.4872 40.8398L33.7308 39.218H35.3526C36.2609 39.218 36.9744 39.9315 36.9744 40.8398V50.5706C36.9744 51.4788 36.2609 52.1924 35.3526 52.1924H33.7308V61.9232H27.2436V52.1924Z" stroke="#38B71D" stroke-width="3.2436" stroke-miterlimit="10" stroke-linecap="round" stroke-linejoin="round"></path><path d="M33.7313 29.4872C33.7313 31.2784 32.2789 32.7308 30.4877 32.7308C28.6965 32.7308 27.2441 31.2784 27.2441 29.4872C27.2441 27.696 28.6965 26.2436 30.4877 26.2436C32.2789 26.2436 33.7313 27.696 33.7313 29.4872Z" stroke="#38B71D" stroke-width="3.2436" stroke-miterlimit="10" stroke-linecap="round" stroke-linejoin="round"></path><path d="M56.437 52.1924H54.8152C53.9069 52.1924 53.1934 51.4788 53.1934 50.5706V40.8398C53.1934 39.9315 53.9069 39.218 54.8152 39.218H56.437L59.6806 40.8398L62.9241 39.218H64.5459C65.4542 39.218 66.1677 39.9315 66.1677 40.8398V50.5706C66.1677 51.4788 65.4542 52.1924 64.5459 52.1924H62.9241V61.9232H56.437V52.1924Z" stroke="#38B71D" stroke-width="3.2436" stroke-miterlimit="10" stroke-linecap="round" stroke-linejoin="round"></path><path d="M62.9227 29.4872C62.9227 31.2784 61.4704 32.7308 59.6791 32.7308C57.8879 32.7308 56.4355 31.2784 56.4355 29.4872C56.4355 27.696 57.8879 26.2436 59.6791 26.2436C61.4704 26.2436 62.9227 27.696 62.9227 29.4872Z" stroke="#38B71D" stroke-width="3.2436" stroke-miterlimit="10" stroke-linecap="round" stroke-linejoin="round"></path><path d="M48.327 26.2436C48.327 28.0348 46.8747 29.4872 45.0834 29.4872C43.2922 29.4872 41.8398 28.0348 41.8398 26.2436C41.8398 24.4524 43.2922 23 45.0834 23C46.8747 23 48.327 24.4524 48.327 26.2436Z" stroke="#38B71D" stroke-width="3.2436" stroke-miterlimit="10" stroke-linecap="round" stroke-linejoin="round"></path><path d="M40.2182 52.1924V61.9231C40.2182 63.7136 41.6713 65.1667 43.4618 65.1667H46.7054C48.4959 65.1667 49.949 63.7136 49.949 61.9231V52.1924H51.5708C52.4791 52.1924 53.1926 51.4788 53.1926 50.5706V37.5962C53.1926 36.6879 52.4791 35.9744 51.5708 35.9744H48.3272L45.0836 39.218L41.84 35.9744H38.5964C37.6881 35.9744 36.9746 36.6879 36.9746 37.5962V50.5706C36.9746 51.4788 37.6881 52.1924 38.5964 52.1924H40.2182Z" stroke="#38B71D" stroke-width="3.2436" stroke-miterlimit="10" stroke-linecap="round" stroke-linejoin="round"></path></svg>