<svg xmlns="http://www.w3.org/2000/svg" width="89" height="89" viewBox="0 0 89 89" fill="none"><circle cx="44.0549" cy="44.3254" r="44.0549" fill="white"></circle><path d="M39.6374 23.0002C38.8728 23.0803 38.2298 23.7983 38.2338 24.5669V27.4064C32.7483 28.9029 29.4228 32.6422 27.5768 36.0393C26.614 37.8119 26.0228 39.4934 25.6676 40.7884C25.5565 41.1934 25.5081 41.4805 25.4392 41.8004C24.4757 41.7985 23.4772 41.7916 22.5505 41.8004C21.7356 41.8087 21.0001 42.5519 21.0001 43.3667V47.5446C20.9885 48.3722 21.7389 49.1336 22.5669 49.1336C23.3945 49.1336 24.1453 48.3722 24.1337 47.5446V44.9335C25.0574 44.9408 26.0024 44.955 26.7935 44.9335C27.5505 44.9131 28.2405 44.268 28.3111 43.5135C28.3154 43.5266 28.3315 43.2046 28.3763 42.9587C28.436 42.6309 28.5344 42.1752 28.6863 41.6204C28.9908 40.5115 29.5153 39.0329 30.335 37.5245C31.8103 34.8084 34.1857 32.0214 38.2335 30.6703V32.4003C38.2218 33.2279 38.9722 33.9892 39.8003 33.9892C40.6279 33.9892 41.3787 33.2279 41.367 32.4003V26.1337H47.6336V32.4003C47.6219 33.2279 48.3723 33.9892 49.2003 33.9892C50.028 33.9892 50.7788 33.2279 50.7671 32.4003V30.6703C54.836 32.02 57.2129 34.8069 58.682 37.5245C59.4969 39.0318 60.0142 40.4958 60.314 41.6043C60.4641 42.1587 60.5657 42.6309 60.624 42.9586C60.668 43.2045 60.6844 43.5083 60.6892 43.497C60.7526 44.2569 61.4447 44.9119 62.2067 44.933C63.0001 44.9545 63.9439 44.9402 64.8666 44.933V45.9773H26.7444C25.9167 45.9657 25.1554 46.7161 25.1554 47.5441C25.1554 48.3717 25.9168 49.1225 26.7444 49.1108H66.4332C67.2536 49.1108 68 48.3644 68 47.5441V43.3662C68 42.5513 67.2645 41.8082 66.4497 41.7994C65.5204 41.7914 64.5238 41.7984 63.5609 41.8002C63.4932 41.4803 63.4422 41.1933 63.3325 40.7882C62.9821 39.4928 62.3981 37.8128 61.4394 36.0391C59.5991 32.635 56.2813 28.8976 50.7665 27.4062V24.5668C50.7665 23.7464 50.0201 23 49.1997 23H39.6365L39.6374 23.0002ZM61.1949 49.6009C60.3691 49.6092 59.6274 50.3746 59.6446 51.2V59.1477L57.6702 62.6892H49.9837L47.5682 59.4578L47.095 55.7043C47.0007 54.9568 46.2983 54.3357 45.5447 54.3336H43.456C42.7026 54.3354 42 54.9569 41.9056 55.7043L41.4324 59.4578L39.017 62.6892H31.3304L29.356 59.1477V52.7667H57.0338C57.8614 52.7784 58.6228 52.028 58.6228 51.2C58.6228 50.3724 57.8614 49.6216 57.0338 49.6332H27.7894C26.969 49.6332 26.2226 50.3796 26.2226 51.2V52.2443H23.9707C23.2065 52.3248 22.5635 53.0425 22.5675 53.8111V57.989C22.5675 58.8093 23.3139 59.5557 24.1343 59.5557H26.223C26.2244 59.8169 26.2922 60.0777 26.419 60.3065L29.0301 65.0063C29.2975 65.4959 29.8428 65.8208 30.4008 65.8223H39.8008C40.2878 65.8212 40.7683 65.5775 41.0576 65.1859L44.1911 61.008C44.3492 60.7935 44.4516 60.5381 44.4847 60.2736L44.5007 60.1432L44.5171 60.2736C44.5503 60.5381 44.6526 60.7935 44.8107 61.008L47.9443 65.1859C48.2335 65.5778 48.714 65.8212 49.2007 65.8223H58.6007C59.1587 65.8208 59.704 65.4959 59.9714 65.0063L62.5825 60.3065C62.7093 60.0777 62.777 59.8169 62.7785 59.5557H64.8672C65.6875 59.5557 66.4339 58.8093 66.4339 57.989V53.8111C66.4339 52.9907 65.6876 52.2443 64.8672 52.2443H62.7785V51.2C62.796 50.3632 62.0321 49.5917 61.1953 49.6009H61.1949ZM35.0018 53.2727C34.4648 53.3055 33.9559 53.6363 33.7075 54.1131C33.4591 54.5903 33.4802 55.1968 33.7614 55.6554L36.8949 60.8777C37.2861 61.6394 38.3655 61.9461 39.0984 61.5035C39.8317 61.0609 40.063 59.9629 39.5712 59.2621L36.4377 54.0399C36.1474 53.5485 35.5715 53.241 35.0018 53.2727H35.0018ZM31.9498 54.8231C31.3798 54.8213 30.821 55.1582 30.5565 55.6635C30.2921 56.1687 30.334 56.8196 30.6604 57.2874L32.7491 60.4209C33.2062 61.1046 34.244 61.3105 34.9277 60.8533C35.6118 60.3961 35.818 59.358 35.3609 58.6746L33.2722 55.5411C32.9888 55.1014 32.4733 54.8213 31.9502 54.8231L31.9498 54.8231ZM25.6997 55.3779H26.2221V56.4222H25.6997V55.3779ZM62.7774 55.3779H63.2998V56.4222H62.7774V55.3779Z" fill="#38B71D"></path></svg>